<?xml version="1.0" encoding="UTF-8" standalone="no"?>
<svg
   xmlns:dc="http://purl.org/dc/elements/1.1/"
   xmlns:cc="http://creativecommons.org/ns#"
   xmlns:rdf="http://www.w3.org/1999/02/22-rdf-syntax-ns#"
   xmlns:svg="http://www.w3.org/2000/svg"
   xmlns="http://www.w3.org/2000/svg"
   xmlns:xlink="http://www.w3.org/1999/xlink"
   xmlns:sodipodi="http://sodipodi.sourceforge.net/DTD/sodipodi-0.dtd"
   xmlns:inkscape="http://www.inkscape.org/namespaces/inkscape"
   id="svg2221"
   sodipodi:version="0.32"
   inkscape:version="0.47 r22583"
   width="375"
   height="375"
   sodipodi:docname="caution.svg"
   inkscape:output_extension="org.inkscape.output.svg.inkscape"
   version="1.0"
   inkscape:export-filename="caution.png"
   inkscape:export-xdpi="19.200001"
   inkscape:export-ydpi="19.200001"
   sodipodi:modified="TRUE">
  <sodipodi:namedview
     inkscape:window-height="923"
     inkscape:window-width="977"
     inkscape:pageshadow="2"
     inkscape:pageopacity="0.0"
     guidetolerance="10.0"
     gridtolerance="10.0"
     objecttolerance="10.0"
     borderopacity="1.0"
     bordercolor="#666666"
     pagecolor="#ffffff"
     id="base"
     inkscape:zoom="1.0141639"
     inkscape:cx="400.50305"
     inkscape:cy="107.42071"
     inkscape:window-x="0"
     inkscape:window-y="25"
     inkscape:current-layer="layer5"
     showgrid="false"
     inkscape:window-maximized="0" />
  <metadata
     id="metadata2223">
    <rdf:RDF>
      <cc:Work
         rdf:about="">
        <dc:title>Stop Sign</dc:title>
        <dc:description>An American street sign: stop. A red and white octagon with the word STOP in the center.</dc:description>
        <dc:subject>
          <rdf:Bag>
            <rdf:li>traffic</rdf:li>
            <rdf:li />
            <rdf:li>stop</rdf:li>
            <rdf:li>street</rdf:li>
            <rdf:li>roadsign</rdf:li>
            <rdf:li>sign</rdf:li>
            <rdf:li>transportation</rdf:li>
          </rdf:Bag>
        </dc:subject>
        <dc:publisher>
          <cc:Agent
             rdf:about="http://www.openclipart.org">
            <dc:title>Public Domain</dc:title>
          </cc:Agent>
        </dc:publisher>
        <dc:creator>
          <cc:Agent>
            <dc:title>Richard D. Worth</dc:title>
          </cc:Agent>
        </dc:creator>
        <dc:rights>
          <cc:Agent>
            <dc:title>Public Domain</dc:title>
          </cc:Agent>
        </dc:rights>
        <dc:date />
        <dc:format>image/svg+xml</dc:format>
        <dc:type
           rdf:resource="http://purl.org/dc/dcmitype/StillImage" />
        <cc:license
           rdf:resource="http://web.resource.org/cc/PublicDomain" />
        <dc:language>en</dc:language>
      </cc:Work>
      <cc:License
         rdf:about="http://web.resource.org/cc/PublicDomain">
        <cc:permits
           rdf:resource="http://web.resource.org/cc/Reproduction" />
        <cc:permits
           rdf:resource="http://web.resource.org/cc/Distribution" />
        <cc:permits
           rdf:resource="http://web.resource.org/cc/DerivativeWorks" />
      </cc:License>
    </rdf:RDF>
  </metadata>
  <title
     id="title2225">Stop Sign</title>
  <desc
     id="desc2227">An American street sign: stop. A red and white octagon with the word STOP in the center.</desc>
  <defs
     id="defs2229">
    <inkscape:perspective
       sodipodi:type="inkscape:persp3d"
       inkscape:vp_x="0 : 187.5 : 1"
       inkscape:vp_y="0 : 1000 : 0"
       inkscape:vp_z="375 : 187.5 : 1"
       inkscape:persp3d-origin="187.5 : 125 : 1"
       id="perspective62" />
    <linearGradient
       id="linearGradient3280">
      <stop
         style="stop-color: rgb(255, 255, 255); stop-opacity: 0.626168;"
         offset="0"
         id="stop3282" />
      <stop
         style="stop-color: rgb(255, 255, 255); stop-opacity: 0;"
         offset="1"
         id="stop3284" />
    </linearGradient>
    <linearGradient
       inkscape:collect="always"
       id="linearGradient3177">
      <stop
         style="stop-color: rgb(255, 0, 0); stop-opacity: 1;"
         offset="0"
         id="stop3179" />
      <stop
         style="stop-color: rgb(255, 0, 0); stop-opacity: 0;"
         offset="1"
         id="stop3181" />
    </linearGradient>
    <linearGradient
       inkscape:collect="always"
       id="linearGradient3157">
      <stop
         style="stop-color: rgb(255, 0, 0); stop-opacity: 1;"
         offset="0"
         id="stop3159" />
      <stop
         style="stop-color: rgb(255, 0, 0); stop-opacity: 0;"
         offset="1"
         id="stop3161" />
    </linearGradient>
    <linearGradient
       id="linearGradient3241">
      <stop
         style="stop-color: rgb(255, 0, 0); stop-opacity: 1;"
         offset="0"
         id="stop3243" />
      <stop
         style="stop-color: rgb(143, 0, 0); stop-opacity: 1;"
         offset="1"
         id="stop3245" />
    </linearGradient>
    <linearGradient
       id="linearGradient3233">
      <stop
         style="stop-color: rgb(241, 15, 7); stop-opacity: 1;"
         offset="0"
         id="stop3235" />
      <stop
         style="stop-color: rgb(120, 8, 4); stop-opacity: 1;"
         offset="1"
         id="stop3237" />
    </linearGradient>
    <path
       d="M 0,-150 L 62.132,-150 L 150,-62.132 L 150,62.132 L 62.132,150 L -62.132,150 L -149,62.132 L -149,-62.132 L -61.132,-150 L 1,-150 L 0,-150 z "
       id="stop_octagon" />
    <radialGradient
       inkscape:collect="always"
       xlink:href="#linearGradient3233"
       id="radialGradient3239"
       cx="-107.87819"
       cy="-99.098099"
       fx="-107.87819"
       fy="-99.098099"
       r="149.5"
       gradientTransform="matrix(1.32133, 1.45205, -1.20916, 1.1003, -85.161, 166.253)"
       gradientUnits="userSpaceOnUse" />
    <linearGradient
       inkscape:collect="always"
       xlink:href="#linearGradient3241"
       id="linearGradient3251"
       x1="0.5"
       y1="138.16936"
       x2="0.5"
       y2="-152.67812"
       gradientUnits="userSpaceOnUse" />
    <linearGradient
       inkscape:collect="always"
       xlink:href="#linearGradient3157"
       id="linearGradient3163"
       x1="-270.27368"
       y1="75.198547"
       x2="-63.391953"
       y2="75.198547"
       gradientUnits="userSpaceOnUse" />
    <linearGradient
       inkscape:collect="always"
       xlink:href="#linearGradient3177"
       id="linearGradient3183"
       x1="-180.85239"
       y1="82.208336"
       x2="-145.80347"
       y2="282.68811"
       gradientUnits="userSpaceOnUse" />
    <linearGradient
       inkscape:collect="always"
       xlink:href="#linearGradient3177"
       id="linearGradient3186"
       gradientUnits="userSpaceOnUse"
       x1="-180.85239"
       y1="82.208336"
       x2="-145.80347"
       y2="282.68811"
       gradientTransform="matrix(0.930909, 0.365252, -0.365252, 0.930909, -118.354, -90.7494)" />
    <linearGradient
       inkscape:collect="always"
       xlink:href="#linearGradient3233"
       id="linearGradient3234"
       x1="0.5"
       y1="142.67488"
       x2="-8.018856"
       y2="-152.67812"
       gradientUnits="userSpaceOnUse" />
    <linearGradient
       inkscape:collect="always"
       xlink:href="#linearGradient3241"
       id="linearGradient3238"
       x1="0.5"
       y1="-152.41164"
       x2="9.0576067"
       y2="143.35487"
       gradientUnits="userSpaceOnUse" />
    <linearGradient
       inkscape:collect="always"
       xlink:href="#linearGradient3233"
       id="linearGradient3253"
       x1="-321.64584"
       y1="-4.7129636"
       x2="-202.68588"
       y2="-4.7129636"
       gradientUnits="userSpaceOnUse"
       gradientTransform="translate(16.4602, -147.569)" />
    <linearGradient
       inkscape:collect="always"
       xlink:href="#linearGradient3233"
       id="linearGradient3270"
       x1="-216.92825"
       y1="-84.530846"
       x2="-308.06824"
       y2="130.9814"
       gradientUnits="userSpaceOnUse" />
    <linearGradient
       inkscape:collect="always"
       xlink:href="#linearGradient3233"
       id="linearGradient3278"
       x1="-312.99957"
       y1="127.34094"
       x2="-312.99957"
       y2="-157.1208"
       gradientUnits="userSpaceOnUse"
       gradientTransform="translate(1.26495e-06, 6.56963e-07)" />
    <radialGradient
       inkscape:collect="always"
       xlink:href="#linearGradient3280"
       id="radialGradient3290"
       cx="-312.99954"
       cy="41.938194"
       fx="-312.99954"
       fy="41.938194"
       r="142.23091"
       gradientTransform="matrix(1.95736, -0.095028, 0.0661898, 1.36336, 296.879, -82.022)"
       gradientUnits="userSpaceOnUse" />
    <radialGradient
       inkscape:collect="always"
       xlink:href="#linearGradient3280"
       id="radialGradient3243"
       gradientUnits="userSpaceOnUse"
       gradientTransform="matrix(1.95736, -0.095028, 0.0661898, 1.36336, 789.314, 113.37)"
       cx="-312.99954"
       cy="41.938194"
       fx="-312.99954"
       fy="41.938194"
       r="142.23091" />
    <linearGradient
       inkscape:collect="always"
       xlink:href="#linearGradient3233"
       id="linearGradient3248"
       gradientUnits="userSpaceOnUse"
       gradientTransform="translate(492.435, 195.392)"
       x1="-312.99957"
       y1="127.34094"
       x2="-312.99957"
       y2="-157.1208" />
    <linearGradient
       inkscape:collect="always"
       xlink:href="#linearGradient3233"
       id="linearGradient3252"
       gradientUnits="userSpaceOnUse"
       x1="-216.92825"
       y1="-84.530846"
       x2="-308.06824"
       y2="130.9814"
       gradientTransform="matrix(1.22936, -0.521831, 0.521831, 1.22936, 475.299, 14.9707)" />
    <linearGradient
       inkscape:collect="always"
       xlink:href="#linearGradient3233"
       id="linearGradient3269"
       x1="-68.908119"
       y1="92.114204"
       x2="-90.298927"
       y2="40.472229"
       gradientUnits="userSpaceOnUse" />
    <linearGradient
       inkscape:collect="always"
       xlink:href="#linearGradient3233"
       id="linearGradient3283"
       x1="-90.534569"
       y1="39.903343"
       x2="-68.942833"
       y2="92.030403"
       gradientUnits="userSpaceOnUse" />
    <linearGradient
       inkscape:collect="always"
       xlink:href="#linearGradient3233"
       id="linearGradient3298"
       gradientUnits="userSpaceOnUse"
       x1="-90.534569"
       y1="39.903343"
       x2="-68.942833"
       y2="92.030403"
       gradientTransform="matrix(-4.65583, 1.92851, 1.92851, 4.65583, 1.13553, 45.8799)" />
    <linearGradient
       inkscape:collect="always"
       xlink:href="#linearGradient3280"
       id="linearGradient3301"
       gradientUnits="userSpaceOnUse"
       gradientTransform="matrix(-4.65583, 1.92851, 1.92851, 4.65583, 1.13553, 45.8799)"
       x1="-80.718124"
       y1="67.181396"
       x2="-92.852165"
       y2="38.398518" />
    <linearGradient
       inkscape:collect="always"
       xlink:href="#linearGradient3233"
       id="linearGradient3312"
       gradientUnits="userSpaceOnUse"
       x1="-68.908119"
       y1="92.114204"
       x2="-90.298927"
       y2="40.472229" />
    <linearGradient
       inkscape:collect="always"
       xlink:href="#linearGradient3233"
       id="linearGradient3314"
       gradientUnits="userSpaceOnUse"
       x1="-90.534569"
       y1="39.903343"
       x2="-68.942833"
       y2="92.030403" />
    <linearGradient
       inkscape:collect="always"
       xlink:href="#linearGradient3280"
       id="linearGradient3316"
       gradientUnits="userSpaceOnUse"
       gradientTransform="matrix(-4.65583, 1.92851, 1.92851, 4.65583, 1.13553, 45.8799)"
       x1="-80.718124"
       y1="67.181396"
       x2="-92.852165"
       y2="38.398518" />
    <linearGradient
       inkscape:collect="always"
       xlink:href="#linearGradient3280"
       id="linearGradient3319"
       gradientUnits="userSpaceOnUse"
       gradientTransform="matrix(-4.65583, 1.92851, 1.92851, 4.65583, 1.13553, 45.8799)"
       x1="-80.718124"
       y1="67.181396"
       x2="-92.852165"
       y2="38.398518" />
    <filter
       inkscape:collect="always"
       id="filter3357">
      <feGaussianBlur
         inkscape:collect="always"
         stdDeviation="2.821096"
         id="feGaussianBlur3359" />
    </filter>
    <linearGradient
       inkscape:collect="always"
       xlink:href="#linearGradient3233"
       id="linearGradient3372"
       gradientUnits="userSpaceOnUse"
       x1="-68.908119"
       y1="92.114204"
       x2="-90.298927"
       y2="40.472229" />
    <linearGradient
       inkscape:collect="always"
       xlink:href="#linearGradient3233"
       id="linearGradient3374"
       gradientUnits="userSpaceOnUse"
       x1="-90.534569"
       y1="39.903343"
       x2="-68.942833"
       y2="92.030403" />
    <linearGradient
       inkscape:collect="always"
       xlink:href="#linearGradient3280"
       id="linearGradient3376"
       gradientUnits="userSpaceOnUse"
       gradientTransform="matrix(-4.65583, 1.92851, 1.92851, 4.65583, 1.13553, 45.8799)"
       x1="-80.718124"
       y1="67.181396"
       x2="-92.852165"
       y2="38.398518" />
    <linearGradient
       inkscape:collect="always"
       xlink:href="#linearGradient3280"
       id="linearGradient3379"
       gradientUnits="userSpaceOnUse"
       gradientTransform="matrix(-4.65583, 1.92851, 1.92851, 4.65583, 1.60546, 45.7813)"
       x1="-80.718124"
       y1="67.181396"
       x2="-92.852165"
       y2="38.398518" />
  </defs>
  <g
     inkscape:groupmode="layer"
     id="layer7">
    <path
       transform="matrix(-5.09246, -2.10937, 2.10937, -5.09246, -357.715, 355.236)"
       d="M -58.146967,87.558606 L -79.738701,96.502195 L -101.33043,87.558607 L -110.27402,65.966873 L -101.33043,44.37514 L -79.738701,35.431551 L -58.146968,44.37514 L -49.203379,65.966873 L -58.146967,87.558606 z "
       inkscape:randomized="0"
       inkscape:rounded="0"
       inkscape:flatsided="true"
       sodipodi:arg2="1.1780972"
       sodipodi:arg1="0.78539816"
       sodipodi:r2="28.210958"
       sodipodi:r1="30.535322"
       sodipodi:cy="65.966873"
       sodipodi:cx="-79.738701"
       sodipodi:sides="8"
       id="path3323"
       style="fill: rgb(0, 0, 0); fill-opacity: 1; fill-rule: nonzero; stroke: none; stroke-width: 0.181421; stroke-linecap: round; stroke-miterlimit: 4; stroke-dasharray: none; stroke-opacity: 1; filter: url(#filter3357); display: inline;"
       sodipodi:type="star" />
  </g>
  <g
     inkscape:groupmode="layer"
     id="layer5"
     style="display: inline;"
     transform="translate(-312.573, 6.70704)">
    <path
       sodipodi:type="star"
       style="fill: url(#linearGradient3372) rgb(0, 0, 0); fill-opacity: 1; fill-rule: nonzero; stroke: none; stroke-width: 0.181421; stroke-linecap: round; stroke-miterlimit: 4; stroke-dasharray: none; stroke-opacity: 1;"
       id="path3261"
       sodipodi:sides="8"
       sodipodi:cx="-79.738701"
       sodipodi:cy="65.966873"
       sodipodi:r1="30.535322"
       sodipodi:r2="28.210958"
       sodipodi:arg1="0.78539816"
       sodipodi:arg2="1.1780972"
       inkscape:flatsided="true"
       inkscape:rounded="0"
       inkscape:randomized="0"
       d="m -58.146967,87.558606 -21.591734,8.943589 -21.591729,-8.943588 -8.94359,-21.591734 8.94359,-21.591733 21.591729,-8.943589 21.591733,8.943589 8.943589,21.591733 -8.943588,21.591733 z"
       transform="matrix(-5.09246, -2.10937, 2.10937, -5.09246, -45.142, 348.529)" />
    <path
       transform="matrix(-4.65583, -1.92851, 1.92851, -4.65583, 1.60546, 334.147)"
       d="m -58.146967,87.558606 -21.591734,8.943589 -21.591729,-8.943588 -8.94359,-21.591734 8.94359,-21.591733 21.591729,-8.943589 21.591733,8.943589 8.943589,21.591733 -8.943588,21.591733 z"
       inkscape:randomized="0"
       inkscape:rounded="0"
       inkscape:flatsided="true"
       sodipodi:arg2="1.1780972"
       sodipodi:arg1="0.78539816"
       sodipodi:r2="28.210958"
       sodipodi:r1="30.535322"
       sodipodi:cy="65.966873"
       sodipodi:cx="-79.738701"
       sodipodi:sides="8"
       id="path3271"
       style="fill: url(#linearGradient3374) rgb(0, 0, 0); fill-opacity: 1; fill-rule: nonzero; stroke: rgb(255, 255, 255); stroke-width: 0.992175; stroke-linecap: round; stroke-miterlimit: 4; stroke-dasharray: none; stroke-opacity: 1;"
       sodipodi:type="star" />
    <g
       transform="scale(0.895426, 1.11679)"
       style="font-size:100.98400116px;font-style:normal;font-weight:bold;fill:#ffffff;fill-opacity:1;stroke:none;display:inline;font-family:Arial"
       id="text3308">
      <path
         d="m 425.09485,174.48481 14.20088,-1.38065 c 0.85466,4.76652 2.58046,8.26743 5.1774,10.50274 2.62976,2.23533 6.16354,3.35299 10.60135,3.35298 4.70071,1e-5 8.23449,-0.98616 10.60134,-2.95852 2.39964,-2.0052 3.59948,-4.33913 3.59953,-7.00182 -5e-5,-1.70934 -0.50957,-3.15572 -1.52857,-4.33915 -0.98621,-1.21625 -2.72845,-2.26817 -5.22671,-3.15575 -1.7094,-0.59168 -5.60478,-1.64359 -11.68613,-3.15575 -7.82366,-1.93944 -13.31334,-4.32269 -16.46907,-7.14975 -4.43779,-3.97752 -6.65667,-8.82619 -6.65666,-14.54603 -1e-5,-3.68166 1.03547,-7.11682 3.10644,-10.3055 2.10382,-3.22143 5.11164,-5.67042 9.02347,-7.34698 3.94467,-1.67642 8.69472,-2.51467 14.25018,-2.51474 9.07274,7e-5 15.89376,1.98885 20.46307,5.96634 4.60208,3.97762 7.0182,9.28651 7.24836,15.92668 l -14.59534,0.64101 c -0.62462,-3.71453 -1.97239,-6.37719 -4.0433,-7.98799 -2.03813,-1.64356 -5.1117,-2.46537 -9.22071,-2.46543 -4.24057,6e-5 -7.56068,0.87118 -9.96034,2.61335 -1.54502,1.11772 -2.31752,2.61341 -2.3175,4.48708 -2e-5,1.70942 0.72317,3.17224 2.16958,4.38847 1.84083,1.54505 6.31147,3.1558 13.41193,4.83224 7.1004,1.67654 12.34354,3.41877 15.72945,5.22671 3.41867,1.77515 6.08133,4.22414 7.98799,7.34698 1.93941,3.09004 2.90914,6.91967 2.9092,11.48891 -6e-5,4.14193 -1.15059,8.02087 -3.4516,11.63682 -2.30112,3.61597 -5.55549,6.31151 -9.7631,8.08661 -4.20771,1.74224 -9.45085,2.61336 -15.72944,2.61336 -9.13855,0 -16.1568,-2.10383 -21.05477,-6.3115 -4.89799,-4.24053 -7.82363,-10.4041 -8.77693,-18.49072"
         style=""
         id="path2869" />
      <path
         d="m 512.51899,198.005 0,-60.05786 -21.44924,0 0,-12.22853 57.44451,0 0,12.22853 -21.39993,0 0,60.05786 -14.59534,0"
         style=""
         id="path2871" />
      <path
         d="m 553.24789,162.30558 c -10e-6,-7.36337 1.10122,-13.54338 3.30367,-18.54003 1.64361,-3.68165 3.87893,-6.98532 6.70597,-9.91103 2.85988,-2.92557 5.98276,-5.09515 9.36863,-6.50873 4.50349,-1.90653 9.69733,-2.85983 15.58152,-2.8599 10.65061,7e-5 19.16455,3.30375 25.54185,9.91103 6.41005,6.60741 9.6151,15.79523 9.61518,27.5635 -8e-5,11.66973 -3.17226,20.80824 -9.51656,27.41558 -6.34443,6.57448 -14.8255,9.86172 -25.44324,9.86172 -10.7493,0 -19.29611,-3.2708 -25.64047,-9.81241 -6.34438,-6.57446 -9.51656,-15.61436 -9.51655,-27.11973 m 15.03912,-0.49308 c -2e-5,8.18525 1.89014,14.39813 5.67049,18.63865 3.78029,4.20768 8.57966,6.31151 14.3981,6.3115 5.81837,1e-5 10.58487,-2.08739 14.2995,-6.2622 3.74739,-4.20764 5.62112,-10.5027 5.62118,-18.88519 -6e-5,-8.2838 -1.82448,-14.4638 -5.47326,-18.54003 -3.61601,-4.07612 -8.43181,-6.1142 -14.44742,-6.11426 -6.01568,6e-5 -10.86435,2.07102 -14.54603,6.21288 -3.68173,4.1091 -5.52258,10.32197 -5.52256,18.63865"
         style=""
         id="path2873" />
      <path
         d="m 634.70568,198.005 0,-72.28639 23.42159,0 c 8.8755,7e-5 14.66104,0.36166 17.35662,1.08478 4.14187,1.08486 7.60991,3.45167 10.40412,7.10044 2.79409,3.61603 4.19116,8.30034 4.19123,14.05295 -7e-5,4.43782 -0.80544,8.16883 -2.41613,11.19305 -1.6108,3.0243 -3.66532,5.40755 -6.16357,7.14975 -2.46548,1.70939 -4.98022,2.84349 -7.54421,3.40229 -3.48452,0.69035 -8.53043,1.03551 -15.13774,1.03548 l -9.51656,0 0,27.26765 -14.59535,0 m 14.59535,-60.05786 0,20.51237 7.98799,0 c 5.75263,4e-5 9.5987,-0.37799 11.53821,-1.1341 1.93943,-0.75602 3.45156,-1.93942 4.53639,-3.55021 1.11762,-1.61071 1.67645,-3.48443 1.67649,-5.62118 -4e-5,-2.62974 -0.77254,-4.79932 -2.3175,-6.50874 -1.54505,-1.7093 -3.50095,-2.77766 -5.86772,-3.20506 -1.74228,-0.32866 -5.24318,-0.49302 -10.50273,-0.49308 l -7.05113,0"
         style=""
         id="path2875" />
    </g>
    <path
       style="fill: url(#linearGradient3379) rgb(0, 0, 0); fill-opacity: 1; fill-rule: nonzero; stroke: none; stroke-width: 5; stroke-linecap: round; stroke-miterlimit: 4; stroke-dasharray: none; stroke-opacity: 1;"
       d="M 441.18868,38.620088 L 357.90743,121.90134 L 357.90743,148.02634 C 448.00153,230.40335 561.30947,227.40817 642.25118,147.99509 L 642.25118,121.90134 L 558.96993,38.620088 L 441.18868,38.620088 z "
       id="path3296"
       sodipodi:nodetypes="ccccccc" />
  </g>
</svg>
